<mxfile host="app.diagrams.net" modified="2024-04-10T14:13:09.025Z" agent="Mozilla/5.0 (Windows NT 10.0; Win64; x64; rv:124.0) Gecko/20100101 Firefox/124.0" etag="LbuK3_HMusmhLebBhEhZ" version="24.2.3" type="github">
  <diagram name="Page-1" id="WHO5cMsDMsLjXfPXbsgw">
    <mxGraphModel dx="1687" dy="911" grid="1" gridSize="10" guides="1" tooltips="1" connect="1" arrows="1" fold="1" page="1" pageScale="1" pageWidth="827" pageHeight="1169" math="0" shadow="0">
      <root>
        <mxCell id="0" />
        <mxCell id="1" parent="0" />
        <mxCell id="3_qst0NbUyWHlaPV9hMc-25" value="Analyse des demandes de congÃ© : formation" style="ellipse;whiteSpace=wrap;html=1;" vertex="1" parent="1">
          <mxGeometry x="289" width="250" height="80" as="geometry" />
        </mxCell>
      </root>
    </mxGraphModel>
  </diagram>
</mxfile>
